<svg version="1.2" baseProfile="tiny" xmlns="http://www.w3.org/2000/svg" viewBox="0 0 361.6 103.2"><g fill="#FFF"><path d="M50.3 50.7l17-37.5 10.9-5-1.3-2.8-9.5 4.3L62.9 0 60 1.3l4.7 10-17.2 38.2 2.8 1.2z"/><path d="M47.3 66.5c-5.6-.1-10.1-4.6-10-10.2s4.6-10.1 10.2-10c5.5.1 10 4.6 10 10.1 0 5.6-4.6 10.2-10.2 10.1z"/><path d="M63.8 47.7c4.9 8.8 1.6 19.9-7.2 24.8-1 .6-2.1 1-3.2 1.4-1.2.4-2.4.7-3.6.8l-.2 4.2c1.7-.2 3.4-.5 5.1-1.1C66.5 73.9 72.9 61.1 69 49.3c0-.1 0-.1-.1-.2-.5-1.3-1-2.6-1.7-3.8l-3.4 2.4zm-34.7 4.5c1.5-6.2 6-11.2 12.1-13.3 6.7-2.3 14-.6 19.1 4.2l3.5-2.4c-6.2-6.3-15.5-8.5-23.9-5.7-7.6 2.6-13.3 9-15 16.8l4.2.4zm15 22.4c-6.7-1.1-12.2-5.8-14.4-12.2-.5-1.5-.8-3-.9-4.5l-4.2-.4c.1 2.1.5 4.2 1.2 6.3 2.8 8 9.8 13.8 18.2 15l.1-4.2z"/><path d="M39 27.4c2.7-.8 5.5-1.2 8.3-1.2 16.9 0 30.6 13.5 30.6 30.2 0 4.5-1.1 9-3.1 13.1l3.6 2.7c2.5-4.9 3.9-10.3 3.9-15.8 0-19-15.6-34.5-34.9-34.5-3.4 0-6.8.5-10 1.5l1.6 4zM22.4 73.8c-3.6-5.1-5.6-11.1-5.6-17.3 0-11.4 6.5-21.8 16.8-26.9l-1.7-4C20 31.3 12.5 43.3 12.5 56.5c0 7.2 2.3 14.2 6.5 20.1l3.4-2.8zm27.5 17l.9-.1c.5 0 .9-.1 1.3-.2l.4-.1c9-1.3 17.1-6.2 22.7-13.4l-3.5-2.6c-1.3 1.7-2.8 3.3-4.4 4.6-4.8 4.2-10.8 6.8-17.2 7.4h-.3c-.4 0-.8.1-1.2.1H47c-.6 0-1.2 0-1.8-.1H45c-5-.4-9.8-1.9-14-4.6-1.8-1.1-3.5-2.4-5-3.9l-3.6 2.5c4.7 4.7 10.6 8 17.1 9.4l.4.1c1.5.3 3.1.5 4.6.6h.2c.8.1 1.5.1 2.3.1h1.9l1 .2z"/><path d="M94.1 50.2C92.7 40.1 88 30.6 80.7 23.5c-18.5-18.2-48.3-18.2-66.8 0C6 31.2 1.2 41.5.2 52.5v.5c0 .5-.1.9-.1 1.4-.3 6 .6 12 2.6 17.6 4.2 11.7 12.8 21.3 24.1 26.6 14.5 6.9 31.4 6 45.1-2.3 3.2-1.7 6.1-3.9 8.5-6.6 10.7-10.2 15.7-24.9 13.7-39.5zM61.7 97c-3.8 1.3-7.7 2.1-11.6 2.3h-2.8c-11.5 0-22.5-4.5-30.7-12.6-9.1-9-13.7-21.5-12.5-34.2C5.7 36.7 15.8 23.1 30.4 17c.7-.3 18.2-7.4 35.7.9 10.4 4.9 18.3 13.7 22.2 24.5.5 1.3.9 2.7 1.2 4.1l.1.2.3 1.5c.1.3.1.6.2.9l.1.7c2.1 12.7-1.7 25.6-10.3 35.2-.1.1-.3.4-.7.8-4.8 5-10.8 8.9-17.5 11.2zm60.7-23.4V38.3h7.6v29.1h14.5v6.2h-22.1zm48.9 0h-20.6V38.3h20.6v6.1h-13v7.8h12.1v6.1h-12.1v9.1h13v6.2zm29.4 0l-2.6-8.4h-13l-2.6 8.4h-8.1L187 38.1h9.3L209 73.6h-8.3zm-4.4-14.7c-2.4-7.6-3.8-11.9-4.1-12.9-.3-1-.5-1.8-.6-2.4-.6 2.1-2.1 7.2-4.6 15.3h9.3zm46.7-3.3c0 5.8-1.7 10.3-5 13.3-3.4 3.1-8.2 4.6-14.5 4.6h-10.1V38.3h11.2c5.8 0 10.4 1.5 13.6 4.6 3.2 3 4.8 7.2 4.8 12.7zm-7.9.2c0-7.6-3.4-11.4-10.2-11.4h-4v23h3.3c7.3 0 10.9-3.9 10.9-11.6zM266.2 40c-4.5 0-8 1.4-10.6 4.3-2.6 2.8-3.9 6.7-3.9 11.6 0 5 1.2 9 3.6 11.7 2.4 2.8 5.9 4.2 10.4 4.2 2.8 0 5.6-.4 8.3-1.1v2.2c-2.9.9-5.9 1.3-8.9 1.2-5 0-9-1.6-11.8-4.8-2.9-3.2-4.3-7.7-4.3-13.4-.1-3.3.6-6.5 2.1-9.5 1.3-2.7 3.4-4.9 5.9-6.3 2.8-1.5 5.9-2.3 9-2.2 3.2-.1 6.4.6 9.4 1.9l-1 2.2c-2.5-1.4-5.4-2-8.2-2zm33.1 21.1h-14.5l-5 12.5H277l14.3-35.5h1.6L307 73.6h-2.8l-4.9-12.5zm-13.7-2.2h12.8l-4.9-12.7c-.4-1-.9-2.4-1.5-4.2-.4 1.4-.9 2.8-1.4 4.2l-5 12.7zm29-.7v15.4h-2.5V38.3h8.5c4.4 0 7.7.8 9.8 2.4 2.1 1.6 3.2 4.1 3.2 7.3.1 2.2-.6 4.3-1.9 6-1.5 1.8-3.5 3-5.8 3.5l9.7 16.1h-3l-9.2-15.4h-8.8zm0-2.1h6.8c3 0 5.4-.7 7-2 1.7-1.3 2.5-3.3 2.5-5.9s-.8-4.7-2.4-5.9c-1.6-1.2-4.3-1.8-8-1.8h-5.9v15.6zm47 8.4c.1 2.7-1.1 5.3-3.3 7-2.2 1.7-5.1 2.6-8.7 2.6-4.4 0-7.7-.5-10-1.4v-2.5c3.1 1.2 6.5 1.7 9.9 1.6 2.9 0 5.3-.7 7-2 1.7-1.2 2.6-3.2 2.6-5.2 0-1.2-.3-2.3-.9-3.3-.7-1-1.7-1.8-2.8-2.4-1.8-.9-3.7-1.7-5.7-2.3-3.6-1.2-6.2-2.6-7.6-4-3.1-3.6-2.7-9 .9-12.1l.2-.2c2.1-1.7 4.8-2.5 8.1-2.5s6.5.6 9.5 1.9l-1.1 2.1c-2.7-1.2-5.6-1.8-8.5-1.8-2.6 0-4.7.6-6.3 1.8-1.5 1.2-2.4 3-2.4 4.9 0 1.1.2 2.2.7 3.2.6.9 1.4 1.7 2.4 2.3 1.8 1 3.7 1.8 5.6 2.4 2.2.7 4.3 1.6 6.3 2.8 1.3.7 2.3 1.8 3.1 3 .7 1.2 1 2.6 1 4.1z"/></g></svg>